HIERARCHY
ROOT Hips
{
	OFFSET -0.001795 -0.223333 0.028219
	CHANNELS 6 Xposition Yposition Zposition Zrotation Yrotation Xrotation 
	JOINT LeftUpLeg
	{
		OFFSET 0.069520 -0.091406 -0.006815
		CHANNELS 3 Zrotation Yrotation Xrotation
		JOINT LeftLeg
		{
			OFFSET 0.034277 -0.375199 -0.004496
			CHANNELS 3 Zrotation Yrotation Xrotation
			JOINT LeftFoot
			{
				OFFSET -0.013596 -0.397961 -0.043693
				CHANNELS 3 Zrotation Yrotation Xrotation
				JOINT LeftToe
				{
					OFFSET 0.026358 -0.055791 0.119288
					CHANNELS 3 Zrotation Yrotation Xrotation
					End Site
					{
						OFFSET 0.000000 0.000000 0.000000
					}
				}
			}
		}
	}
	JOINT RightUpLeg
	{
		OFFSET -0.067670 -0.090522 -0.004320
		CHANNELS 3 Zrotation Yrotation Xrotation
		JOINT RightLeg
		{
			OFFSET -0.038290 -0.382569 -0.008850
			CHANNELS 3 Zrotation Yrotation Xrotation
			JOINT RightFoot
			{
				OFFSET 0.015774 -0.398415 -0.042312
				CHANNELS 3 Zrotation Yrotation Xrotation
				JOINT RightToe
				{
					OFFSET -0.025372 -0.048144 0.123348
					CHANNELS 3 Zrotation Yrotation Xrotation
					End Site
					{
						OFFSET 0.000000 0.000000 0.000000
					}
				}
			}
		}
	}
	JOINT Spine
	{
		OFFSET -0.002533 0.108963 -0.026696
		CHANNELS 3 Zrotation Yrotation Xrotation
		JOINT Spine1
		{
			OFFSET 0.005487 0.135180 0.001092
			CHANNELS 3 Zrotation Yrotation Xrotation
			JOINT Spine2
			{
				OFFSET 0.001457 0.052922 0.025425
				CHANNELS 3 Zrotation Yrotation Xrotation
				JOINT Neck
				{
					OFFSET -0.002778 0.213870 -0.042857
					CHANNELS 3 Zrotation Yrotation Xrotation
					JOINT Head
					{
						OFFSET 0.005152 0.064970 0.051349
						CHANNELS 3 Zrotation Yrotation Xrotation
						End Site
						{
							OFFSET 0.000000 0.000000 0.000000
						}
					}
				}
				JOINT LeftShoulder
				{
					OFFSET 0.078845 0.121749 -0.034090
					CHANNELS 3 Zrotation Yrotation Xrotation
					JOINT LeftArm
					{
						OFFSET 0.090977 0.030469 -0.008868
						CHANNELS 3 Zrotation Yrotation Xrotation
						JOINT LeftForeArm
						{
							OFFSET 0.259612 -0.012772 -0.027456
							CHANNELS 3 Zrotation Yrotation Xrotation
							JOINT LeftHand
							{
								OFFSET 0.249234 0.008986 -0.001171
								CHANNELS 3 Zrotation Yrotation Xrotation
								End Site
								{
									OFFSET 0.000000 0.000000 0.000000
								}
							}
						}
					}
				}
				JOINT RightShoulder
				{
					OFFSET -0.081759 0.118833 -0.038615
					CHANNELS 3 Zrotation Yrotation Xrotation
					JOINT RightArm
					{
						OFFSET -0.096012 0.032551 -0.009143
						CHANNELS 3 Zrotation Yrotation Xrotation
						JOINT RightForeArm
						{
							OFFSET -0.253742 -0.013329 -0.021401
							CHANNELS 3 Zrotation Yrotation Xrotation
							JOINT RightHand
							{
								OFFSET -0.255298 0.007772 -0.005559
								CHANNELS 3 Zrotation Yrotation Xrotation
								End Site
								{
									OFFSET 0.000000 0.000000 0.000000
								}
							}
						}
					}
				}
			}
		}
	}
}
MOTION
Frames: 7
Frame Time: 0.050000
-0.010280 0.950710 -0.015155 -2.311312 -11.010080 3.512186 2.400898 0.299940 3.686609 0.409094 0.367843 -9.655464 3.592120 9.381090 12.474978 0.000000 0.000000 0.000000 -1.232816 0.164402 -1.268618 3.401698 -0.293641 -5.957123 2.140289 -3.357416 13.878272 0.000000 0.000000 0.000000 4.682984 -0.610285 6.849618 -6.395914 1.933488 -26.654004 1.885113 19.076752 29.613339 15.850744 -6.019590 -24.922762 0.000000 0.000000 0.000000 -1.118433 -14.625697 4.638378 -60.498174 -8.453906 -6.685016 -8.827230 -40.544213 4.295082 0.000000 0.000000 0.000000 10.857240 10.415817 6.000041 54.894265 51.000491 19.318334 -21.798016 68.637951 -6.856984 0.000000 0.000000 0.000000 
-0.011382 0.950789 -0.016224 -2.270206 -11.075902 3.400620 2.554107 0.310937 3.848522 0.341726 0.372174 -9.676164 3.630847 9.468956 12.709583 0.000000 0.000000 0.000000 -0.940743 0.146188 -1.202749 3.081088 -0.285783 -5.907267 2.015245 -3.694808 14.082140 0.000000 0.000000 0.000000 4.601297 -0.625920 7.197361 -6.304621 1.914514 -26.661819 1.982409 19.220146 29.366617 15.410637 -5.638296 -25.193971 0.000000 0.000000 0.000000 -1.175437 -14.189901 4.480651 -60.357810 -7.779490 -6.988475 -9.684195 -40.837495 4.605665 0.000000 0.000000 0.000000 10.147930 10.944413 6.104641 52.008462 53.189890 19.341440 -26.729361 60.622863 -9.050709 0.000000 0.000000 0.000000 
-0.011974 0.950610 -0.016210 -2.113327 -11.069804 3.266434 2.296593 0.317271 3.826422 0.483875 0.338205 -9.170080 3.771313 9.645962 12.212600 0.000000 0.000000 0.000000 -1.083131 0.145690 -1.124816 3.074887 -0.285400 -5.840620 1.922316 -3.750869 13.843087 0.000000 0.000000 0.000000 4.792176 -0.638196 7.203146 -6.516132 1.962437 -26.791867 2.225495 19.555389 29.579333 15.417897 -5.461461 -25.722094 0.000000 0.000000 0.000000 -0.842221 -14.106135 4.451779 -60.476859 -6.969281 -7.491597 -10.598441 -41.407323 4.967479 0.000000 0.000000 0.000000 9.256539 11.019545 5.988119 49.874376 54.631933 19.243221 -30.324478 53.912940 -9.743531 0.000000 0.000000 0.000000 
-0.012121 0.950438 -0.015280 -2.097529 -10.656785 3.152251 2.302077 0.337666 4.093738 0.515202 0.325105 -8.974980 3.565931 9.273246 11.568102 0.000000 0.000000 0.000000 -0.954908 0.111054 -0.788740 2.708001 -0.280958 -5.870110 1.847980 -3.865644 13.929778 0.000000 0.000000 0.000000 4.950461 -0.659060 7.333385 -6.557144 1.975781 -27.072159 2.503408 19.507027 29.583068 15.004930 -5.087743 -26.040236 0.000000 0.000000 0.000000 -0.966698 -13.701162 4.296751 -60.501089 -5.944640 -8.020973 -11.847397 -41.723914 5.432902 0.000000 0.000000 0.000000 8.742902 10.995413 5.888673 46.842931 54.945444 17.934158 -32.201285 49.055766 -9.626171 0.000000 0.000000 0.000000 
-0.012009 0.950145 -0.013533 -2.058297 -10.397306 2.965118 2.098408 0.352281 4.196482 0.717701 0.281565 -8.366010 3.526091 9.180588 11.147463 0.000000 0.000000 0.000000 -1.037328 0.093690 -0.543756 2.812572 -0.286775 -5.958571 1.588771 -4.221181 13.770217 0.000000 0.000000 0.000000 5.373362 -0.678702 7.205344 -6.750552 2.019177 -27.359254 2.704518 19.672592 29.692972 15.070151 -5.089016 -26.008459 0.000000 0.000000 0.000000 -1.114067 -13.307171 4.139288 -60.217310 -4.995201 -8.484265 -12.879562 -41.790832 5.770659 0.000000 0.000000 0.000000 8.443505 10.590239 5.675760 45.164671 55.041236 17.186801 -32.849616 46.053450 -9.198290 0.000000 0.000000 0.000000 
-0.011786 0.949881 -0.011353 -1.990966 -9.808189 2.597029 1.982533 0.373864 4.424725 0.531246 0.269944 -7.966363 3.181570 8.565626 10.491526 0.000000 0.000000 0.000000 -1.014642 0.043230 0.031305 2.631389 -0.287233 -5.780501 1.383131 -4.466082 13.682174 0.000000 0.000000 0.000000 5.734461 -0.696102 7.145133 -6.860685 2.050357 -27.461584 2.910134 19.749863 29.679128 14.987407 -4.993066 -25.887683 0.000000 0.000000 0.000000 -1.514826 -13.096290 4.011572 -60.065675 -4.075057 -8.923766 -14.199039 -41.752253 6.179153 0.000000 0.000000 0.000000 8.756683 9.784492 5.436426 44.007614 54.012548 16.063077 -32.861489 45.706947 -9.036005 0.000000 0.000000 0.000000 
-0.011500 0.949610 -0.008974 -1.958229 -9.555189 2.431838 1.845829 0.393496 4.601101 0.590907 0.244938 -7.546111 3.035411 8.263012 9.988700 0.000000 0.000000 0.000000 -1.054169 0.010461 0.442679 2.607333 -0.290008 -5.898165 1.227334 -4.659080 13.567042 0.000000 0.000000 0.000000 5.986493 -0.689240 6.870062 -6.812092 2.041278 -27.576078 3.135812 19.848199 29.699779 14.953456 -4.958081 -25.782421 0.000000 0.000000 0.000000 -2.455211 -12.772019 3.806477 -59.126026 -3.315652 -9.051776 -15.424043 -41.178875 6.475328 0.000000 0.000000 0.000000 9.057428 8.830761 5.099627 44.288122 52.097179 15.174233 -33.095834 48.318162 -9.570958 0.000000 0.000000 0.000000 
